<svg width="400" height="120" viewBox="0 0 400 120" fill="none" xmlns="http://www.w3.org/2000/svg">
  <!-- Document Icon -->
  <g transform="translate(0, 10)">
    <!-- Back Document -->
    <rect x="8" y="8" width="50" height="65" rx="4" fill="#3D1F8F" opacity="0.6"/>
    <!-- Front Document -->
    <rect x="0" y="0" width="50" height="65" rx="4" fill="#3D1F8F"/>
    <!-- Corner Fold -->
    <path d="M35 0 L50 0 L50 15 Z" fill="#2B1566"/>
    <path d="M35 0 L35 15 L50 15 Z" fill="#8B7BC4"/>
    <!-- Cloud with Lock -->
    <ellipse cx="25" cy="35" rx="15" ry="12" fill="white"/>
    <ellipse cx="18" cy="32" rx="8" ry="7" fill="white"/>
    <ellipse cx="32" cy="32" rx="8" ry="7" fill="white"/>
    <!-- Lock -->
    <rect x="22" y="32" width="6" height="8" rx="1" fill="#3D1F8F"/>
    <path d="M20 32 L20 28 C20 25 22 23 25 23 C28 23 30 25 30 28 L30 32" stroke="#3D1F8F" strokeWidth="2" fill="none"/>
  </g>
  
  <!-- Text: BHARAT RECORDS -->
  <text x="70" y="45" font-family="Arial, sans-serif" font-size="28" font-weight="bold" fill="#3D1F8F">
    BHARAT RECORDS
  </text>
  
  <!-- Underline -->
  <line x1="70" y1="50" x2="370" y2="50" stroke="#3D1F8F" stroke-width="2"/>
  
  <!-- Subtitle -->
  <text x="70" y="72" font-family="Arial, sans-serif" font-size="14" font-weight="500" fill="#666">
    SMART WALLET FOR SMART PEOPLE
  </text>
</svg>
